PathFileType	4	(x/y/z)	S08_P20_T07
DataRate	CameraRate	NumFrames	NumMarkers	Units	OrigDataRate	OrigDataStartFrame	OrigNumFrames
240	240	4	51	mm	240	94	373
Frame#	Time	Sternum			R.Acromium			L.Acromium			Top.Head			R.ASIS			L.ASIS			R.PSIS			L.PSIS			R.Great.Tro			L.Great.Tro			R.Iliac.Crest			L.Iliac.Crest			V.Sacral			R.Thigh.Upper.Post			R.Thigh.Lower.Ant			R.Thigh.Lower.Post			R.Thigh.Upper.Ant			R.Knee.Lat			R.Knee.Med			R.Shank.Upper.Post			R.Shank.Lower.Ant			R.Shank.Lower.Post			R.Shank.Upper.Ant			R.Ankle.Lat			R.Ankle.Med			R.Heel.Upper			R.Heel.Med			R.Heel.Lat			R.Toe.Lat			R.Toe.Med			R.Toe.Tip			L.Thigh.Upper.Post			L.Thigh.Lower.Ant			L.Thigh.Lower.Post			L.Thigh.Upper.Ant			L.Knee.Lat			L.Knee.Med			L.Shank.Upper.Post			L.Shank.Lower.Ant			L.Shank.Lower.Post			L.Shank.Upper.Ant			L.Ankle.Lat			L.Ankle.Med			L.Heel.Upper			L.Heel.Med			L.Heel.Lat			L.Toe.Lat			L.Toe.Med			L.Toe.Tip			Cervical.Spine			Back			
		X1	Y1	Z1	X2	Y2	Z2	X3	Y3	Z3	X4	Y4	Z4	X5	Y5	Z5	X6	Y6	Z6	X7	Y7	Z7	X8	Y8	Z8	X9	Y9	Z9	X10	Y10	Z10	X11	Y11	Z11	X12	Y12	Z12	X13	Y13	Z13	X14	Y14	Z14	X15	Y15	Z15	X16	Y16	Z16	X17	Y17	Z17	X18	Y18	Z18	X19	Y19	Z19	X20	Y20	Z20	X21	Y21	Z21	X22	Y22	Z22	X23	Y23	Z23	X24	Y24	Z24	X25	Y25	Z25	X26	Y26	Z26	X27	Y27	Z27	X28	Y28	Z28	X29	Y29	Z29	X30	Y30	Z30	X31	Y31	Z31	X32	Y32	Z32	X33	Y33	Z33	X34	Y34	Z34	X35	Y35	Z35	X36	Y36	Z36	X37	Y37	Z37	X38	Y38	Z38	X39	Y39	Z39	X40	Y40	Z40	X41	Y41	Z41	X42	Y42	Z42	X43	Y43	Z43	X44	Y44	Z44	X45	Y45	Z45	X46	Y46	Z46	X47	Y47	Z47	X48	Y48	Z48	X49	Y49	Z49	X50	Y50	Z50	X51	Y51	Z51	

94	0.3875	-847.53	1231.3	293.18	-961.63	1468.3	472.4	-974.83	1503	138.77	-943.92	1791.2	327.41	-885.87	1024	402.73	-883.61	1021.6	171.83	-1088.5	1045.4	330.17	-1083.1	1049.9	237.08	-937.21	915.38	476.95	-983.93	917.4	108.51	-980.89	1089.6	451.21	-977.79	1103.5	143.82	-1102.2	1007.9	284.03	-877.16	719.34	461.9	-767.39	658.22	430.14	-835.83	639.16	441.8	-803.33	744.78	449.23	-766.42	558	425.75	-793.2	551.24	300.82	-816.25	371.61	435.22	-752.02	312.53	414.28	-812.62	294.95	428.73	-755.5	390.41	423.91	-805.96	127.08	394.55	-771.93	144.3	319.34	-847.74	88.099	343.27	-830.83	62.839	317.3	-843.88	63.471	377.64	-701.93	61.491	440.56	-645.58	80.167	323.64	-588.98	101.42	375.21	-1036	718.6	127.31	-964.49	616.96	154.04	-1031.8	628.9	145.72	-965.01	703.21	128.49	-1042.7	525.41	169.42	-1037.7	525.95	294.92	-1137.7	360.8	170.56	-1092.5	261.65	196.43	-1159.8	288.67	190.85	-1082	333.4	179.25	-1172.3	117.48	211.53	-1151.6	115.38	297.3	-1231.3	88.336	260.77	-1222.2	52.968	289.98	-1227.3	63.846	226.72	-1053.7	40.349	191.06	-1034.4	38.427	306.16	-968.34	50.271	256.92	-1032.2	1529.4	300.25	-1085.5	1248.9	300.96
95	0.39167	-841.9	1230.5	293.32	-956.1	1467.6	472.51	-969.07	1502.4	138.88	-938.4	1790.5	327.63	-880.21	1023.5	402.96	-877.99	1020.9	172.02	-1082.6	1044.8	330.49	-1077.2	1049.3	237.43	-931.6	914.69	477.22	-978.65	917.01	108.71	-975.28	1089	451.48	-972.16	1102.8	144.08	-1096.4	1007.3	284.36	-872.69	718.26	462.13	-763.2	656.73	430.3	-831.69	637.92	442.07	-798.78	743.42	449.38	-761.88	556.89	425.71	-789.25	549.73	300.86	-807.5	369.58	435.29	-741.92	311.98	413.96	-802.08	292.99	428.68	-747.22	389.84	423.79	-791.16	125.01	394.15	-757.58	143.09	318.79	-832.08	85.047	342.92	-814.67	60.264	316.84	-827.53	60.487	377.27	-694.33	61.542	440.28	-629.92	82.041	322.57	-573.58	104.61	373.93	-1032.6	718.83	127.54	-961.53	616.67	153.81	-1028.6	629.22	145.59	-961.44	702.97	128.37	-1040.5	525.63	169.26	-1035.2	525.97	294.79	-1136.3	361.48	170.42	-1091.6	262.02	196.16	-1158.6	289.46	190.67	-1080.9	333.65	179.12	-1172.3	117.83	211.54	-1151.1	115.93	297.14	-1231	89.059	260.57	-1222	53.763	289.94	-1227.2	64.503	226.68	-1053.7	40.238	191.02	-1034.3	38.523	306.09	-968.26	50.029	256.9	-1026.7	1528.7	300.26	-1079.8	1248.2	300.99
96	0.39583	-836.25	1229.8	293.47	-950.57	1466.8	472.63	-963.31	1501.7	139.01	-932.88	1789.8	327.86	-874.52	1022.9	403.2	-872.34	1020.2	172.21	-1076.7	1044.1	330.83	-1071.4	1048.7	237.79	-925.98	913.97	477.49	-973.36	916.61	108.9	-969.64	1088.4	451.76	-966.51	1102.1	144.35	-1090.7	1006.6	284.71	-868.22	717.12	462.42	-759.02	655.19	430.46	-827.56	636.64	442.38	-794.24	742.02	449.57	-757.34	555.73	425.68	-785.31	548.21	300.89	-798.91	367.63	435.33	-732.05	311.48	413.62	-791.77	291.15	428.6	-739.1	389.28	423.65	-776.69	123.13	393.72	-743.62	142.04	318.21	-816.78	82.226	342.56	-798.89	57.909	316.36	-811.53	57.738	376.87	NaN	NaN	NaN	-614.71	84.034	321.47	-558.65	107.9	372.59	-1029	719.04	127.73	-958.48	616.38	153.57	-1025.4	629.51	145.46	-957.81	702.71	128.24	-1038.2	525.83	169.1	-1032.5	525.97	294.68	-1134.8	362.17	170.28	-1090.6	262.38	195.89	-1157.4	290.26	190.47	-1079.7	333.9	178.97	-1172.3	118.18	211.54	-1150.6	116.51	296.97	-1230.8	89.815	260.36	-1221.8	54.59	289.89	-1227	65.189	226.63	-1053.7	40.122	190.98	-1034.2	38.626	306.03	-968.17	49.782	256.87	-1021.1	1527.9	300.27	-1074	1247.4	301.04
97	0.4	-830.59	1229	293.65	-945.05	1466	472.77	-957.55	1501	139.15	-927.36	1789	328.1	-868.81	1022.2	403.44	-866.67	1019.4	172.41	-1070.8	1043.4	331.18	-1065.5	1048	238.18	-920.35	913.21	477.76	-968.06	916.18	109.1	-963.97	1087.7	452.06	-960.82	1101.4	144.64	-1084.9	1006	285.06	-863.73	715.94	462.76	-754.82	653.64	430.63	-823.4	635.32	442.71	-789.68	740.58	449.8	-752.8	554.54	425.64	-781.36	546.67	300.9	-790.48	365.77	435.34	-722.42	311.02	413.28	-781.69	289.42	428.48	-731.14	388.74	423.5	-762.6	121.44	393.26	-730.06	141.13	317.6	-801.88	79.624	342.16	-783.51	55.76	315.85	-795.93	55.214	376.43	NaN	NaN	NaN	-599.99	86.117	320.33	-544.2	111.24	371.22	-1025.3	719.23	127.9	-955.34	616.07	153.33	-1022.1	629.77	145.32	-954.1	702.44	128.11	-1035.8	526.01	168.96	-1029.8	525.95	294.56	-1133.2	362.86	170.14	-1089.6	262.73	195.61	-1156	291.08	190.25	-1078.5	334.15	178.81	-1172.2	118.56	211.53	-1150.1	117.11	296.78	-1230.5	90.606	260.13	-1221.6	55.453	289.82	-1226.9	65.907	226.57	-1053.7	40.002	190.93	-1034.1	38.733	305.96	-968.07	49.533	256.84	-1015.5	1527.2	300.29	-1068.3	1246.6	301.1
